HIERARCHY
ROOT Hips
{
	OFFSET 0.000000 71.427986 0.000000
	CHANNELS 6 Xposition Yposition Zposition Xrotation Yrotation Zrotation
	JOINT Pelvis
	{
		OFFSET 0.000000 0.000000 0.000000
		CHANNELS 3 Xrotation Yrotation Zrotation
		JOINT LeftUpLeg
		{
			OFFSET 6.797100 -2.508499 -1.318700
			CHANNELS 3 Xrotation Yrotation Zrotation
			JOINT LeftLeg
			{
				OFFSET 0.069008 -29.241863 0.690200
				CHANNELS 3 Xrotation Yrotation Zrotation
				JOINT LeftFoot
				{
					OFFSET -0.069008 -29.568123 -0.266800
					CHANNELS 3 Xrotation Yrotation Zrotation
					JOINT LeftToeBase
					{
						OFFSET 3.145500 -8.631000 16.059900
						CHANNELS 3 Xrotation Yrotation Zrotation
						End Site
						{
							OFFSET 0.000000 18.501587 0.000000
						}
					}
				}
			}
			JOINT Left_ShortSleeve
			{
				OFFSET 0.265923 -10.480953 1.153800
				CHANNELS 3 Xrotation Yrotation Zrotation
				End Site
				{
					OFFSET 1.725763 19.823879 0.000000
				}
			}
		}
		JOINT RightUpLeg
		{
			OFFSET -6.797100 -2.508499 -1.318700
			CHANNELS 3 Xrotation Yrotation Zrotation
			JOINT RightLeg
			{
				OFFSET -0.082453 -29.241932 0.688000
				CHANNELS 3 Xrotation Yrotation Zrotation
				JOINT RightFoot
				{
					OFFSET 0.082453 -29.568058 -0.264600
					CHANNELS 3 Xrotation Yrotation Zrotation
					JOINT RightToeBase
					{
						OFFSET -3.115300 -8.682800 16.113400
						CHANNELS 3 Xrotation Yrotation Zrotation
						End Site
						{
							OFFSET 0.000000 18.567114 0.000000
						}
					}
				}
			}
			JOINT Right_ShortSleeve
			{
				OFFSET -0.265923 -10.480953 1.153800
				CHANNELS 3 Xrotation Yrotation Zrotation
				End Site
				{
					OFFSET -1.725766 19.823910 0.000000
				}
			}
		}
	}
	JOINT Spine
	{
		OFFSET 0.000000 13.368103 0.470500
		CHANNELS 3 Xrotation Yrotation Zrotation
		JOINT Spine1
		{
			OFFSET 0.147000 13.837402 0.538800
			CHANNELS 3 Xrotation Yrotation Zrotation
			JOINT Spine2
			{
				OFFSET 0.168000 16.242897 -1.435500
				CHANNELS 3 Xrotation Yrotation Zrotation
				JOINT Neck
				{
					OFFSET 0.217200 18.631500 -1.679100
					CHANNELS 3 Xrotation Yrotation Zrotation
					JOINT Head
					{
						OFFSET 0.000000 6.599396 1.385900
						CHANNELS 3 Xrotation Yrotation Zrotation
						JOINT Hat
						{
							OFFSET -0.532200 27.220596 -10.096100
							CHANNELS 3 Xrotation Yrotation Zrotation
							End Site
							{
								OFFSET 0.000000 22.029861 0.000000
							}
						}
						JOINT HairD
						{
							OFFSET -10.777400 17.437393 -1.325900
							CHANNELS 3 Xrotation Yrotation Zrotation
							JOINT HairD1
							{
								OFFSET -3.290299 -11.051193 1.062200
								CHANNELS 3 Xrotation Yrotation Zrotation
								End Site
								{
									OFFSET 0.000000 11.579437 0.000000
								}
							}
						}
						JOINT HairB
						{
							OFFSET -10.777400 17.437393 1.467900
							CHANNELS 3 Xrotation Yrotation Zrotation
							JOINT HairB1
							{
								OFFSET -1.561200 -12.956299 3.590200
								CHANNELS 3 Xrotation Yrotation Zrotation
								End Site
								{
									OFFSET 0.000000 13.534866 0.000000
								}
							}
						}
						JOINT HairA
						{
							OFFSET 9.713100 17.437393 1.467900
							CHANNELS 3 Xrotation Yrotation Zrotation
							JOINT HairA1
							{
								OFFSET 1.561200 -12.956299 3.590200
								CHANNELS 3 Xrotation Yrotation Zrotation
								End Site
								{
									OFFSET 0.000000 13.534866 0.000000
								}
							}
						}
						JOINT HairC
						{
							OFFSET 9.713100 17.437393 -1.325900
							CHANNELS 3 Xrotation Yrotation Zrotation
							JOINT HairC1
							{
								OFFSET 3.290300 -11.051193 1.062200
								CHANNELS 3 Xrotation Yrotation Zrotation
								End Site
								{
									OFFSET 0.000000 11.579437 0.000000
								}
							}
						}
					}
				}
				JOINT LeftShoulder
				{
					OFFSET 5.101800 15.108002 -2.763700
					CHANNELS 3 Xrotation Yrotation Zrotation
					JOINT LeftArm
					{
						OFFSET 9.825497 2.506317 -1.597400
						CHANNELS 3 Xrotation Yrotation Zrotation
						JOINT LeftForeArm
						{
							OFFSET 21.966244 0.000000 0.000000
							CHANNELS 3 Xrotation Yrotation Zrotation
							JOINT LeftHand
							{
								OFFSET 33.879036 0.000000 0.000000
								CHANNELS 3 Xrotation Yrotation Zrotation
								JOINT LeftHandThumb1
								{
									OFFSET 6.715286 -2.359680 3.363841
									CHANNELS 3 Xrotation Yrotation Zrotation
									JOINT LeftHandThumb2
									{
										OFFSET 2.507072 -1.447464 1.447461
										CHANNELS 3 Xrotation Yrotation Zrotation
										JOINT LeftHandThumb3
										{
											OFFSET 2.898338 -1.673355 1.673357
											CHANNELS 3 Xrotation Yrotation Zrotation
											End Site
											{
												OFFSET -0.295959 3.727692 -0.131651
											}
										}
									}
								}
								JOINT LeftHandIndex1
								{
									OFFSET 14.190811 -0.254547 3.840278
									CHANNELS 3 Xrotation Yrotation Zrotation
									JOINT LeftHandIndex2
									{
										OFFSET 3.551727 0.000000 -0.000000
										CHANNELS 3 Xrotation Yrotation Zrotation
										JOINT LeftHandIndex3
										{
											OFFSET 2.894196 0.000000 0.000000
											CHANNELS 3 Xrotation Yrotation Zrotation
											End Site
											{
												OFFSET -1.000603 2.690872 0.366626
											}
										}
									}
								}
								JOINT LeftHandMiddle1
								{
									OFFSET 13.776489 0.000000 0.000000
									CHANNELS 3 Xrotation Yrotation Zrotation
									JOINT LeftHandMiddle2
									{
										OFFSET 3.438232 0.000000 0.000000
										CHANNELS 3 Xrotation Yrotation Zrotation
										JOINT LeftHandMiddle3
										{
											OFFSET 3.691551 0.000000 0.000000
											CHANNELS 3 Xrotation Yrotation Zrotation
											End Site
											{
												OFFSET -1.082298 3.499527 0.457670
											}
										}
									}
								}
								JOINT LeftHandRing1
								{
									OFFSET 13.966164 -0.268127 -3.067488
									CHANNELS 3 Xrotation Yrotation Zrotation
									JOINT LeftHandRing2
									{
										OFFSET 3.162567 0.000000 0.000000
										CHANNELS 3 Xrotation Yrotation Zrotation
										JOINT LeftHandRing3
										{
											OFFSET 3.324348 0.000000 0.000000
											CHANNELS 3 Xrotation Yrotation Zrotation
											End Site
											{
												OFFSET -0.861900 3.184998 0.405154
											}
										}
									}
								}
								JOINT LeftHandPinky1
								{
									OFFSET 13.131393 -0.168503 -5.746925
									CHANNELS 3 Xrotation Yrotation Zrotation
									JOINT LeftHandPinky2
									{
										OFFSET 2.849182 0.000000 0.000000
										CHANNELS 3 Xrotation Yrotation Zrotation
										JOINT LeftHandPinky3
										{
											OFFSET 2.805038 0.000000 0.000000
											CHANNELS 3 Xrotation Yrotation Zrotation
											End Site
											{
												OFFSET -0.882500 2.642609 0.325652
											}
										}
									}
								}
							}
							JOINT Left_Sleeve
							{
								OFFSET 6.592125 -0.646545 0.805568
								CHANNELS 3 Xrotation Yrotation Zrotation
								End Site
								{
									OFFSET -0.000179 20.275787 -0.000000
								}
							}
						}
					}
				}
				JOINT RightShoulder
				{
					OFFSET -5.731700 15.108002 -2.763700
					CHANNELS 3 Xrotation Yrotation Zrotation
					JOINT RightArm
					{
						OFFSET -9.825497 2.506317 -1.597400
						CHANNELS 3 Xrotation Yrotation Zrotation
						JOINT RightForeArm
						{
							OFFSET -21.966242 0.000000 0.000000
							CHANNELS 3 Xrotation Yrotation Zrotation
							JOINT RightHand
							{
								OFFSET -33.879032 0.000000 0.000000
								CHANNELS 3 Xrotation Yrotation Zrotation
								JOINT RightHandThumb1
								{
									OFFSET -6.715286 -2.359680 3.363841
									CHANNELS 3 Xrotation Yrotation Zrotation
									JOINT RightHandThumb2
									{
										OFFSET -2.507072 -1.447464 1.447461
										CHANNELS 3 Xrotation Yrotation Zrotation
										JOINT RightHandThumb3
										{
											OFFSET -2.898338 -1.673355 1.673357
											CHANNELS 3 Xrotation Yrotation Zrotation
											End Site
											{
												OFFSET 0.295959 3.727692 -0.131651
											}
										}
									}
								}
								JOINT RightHandIndex1
								{
									OFFSET -14.190811 -0.254547 3.840278
									CHANNELS 3 Xrotation Yrotation Zrotation
									JOINT RightHandIndex2
									{
										OFFSET -3.551727 0.000000 -0.000000
										CHANNELS 3 Xrotation Yrotation Zrotation
										JOINT RightHandIndex3
										{
											OFFSET -2.894196 0.000000 0.000000
											CHANNELS 3 Xrotation Yrotation Zrotation
											End Site
											{
												OFFSET 1.000603 2.690872 0.366626
											}
										}
									}
								}
								JOINT RightHandMiddle1
								{
									OFFSET -13.776489 0.000000 0.000000
									CHANNELS 3 Xrotation Yrotation Zrotation
									JOINT RightHandMiddle2
									{
										OFFSET -3.438232 0.000000 0.000000
										CHANNELS 3 Xrotation Yrotation Zrotation
										JOINT RightHandMiddle3
										{
											OFFSET -3.691551 0.000000 0.000000
											CHANNELS 3 Xrotation Yrotation Zrotation
											End Site
											{
												OFFSET 1.082298 3.499527 0.457670
											}
										}
									}
								}
								JOINT RightHandRing1
								{
									OFFSET -13.966164 -0.268127 -3.067488
									CHANNELS 3 Xrotation Yrotation Zrotation
									JOINT RightHandRing2
									{
										OFFSET -3.162567 0.000000 0.000000
										CHANNELS 3 Xrotation Yrotation Zrotation
										JOINT RightHandRing3
										{
											OFFSET -3.324348 0.000000 0.000000
											CHANNELS 3 Xrotation Yrotation Zrotation
											End Site
											{
												OFFSET 0.861900 3.184998 0.405154
											}
										}
									}
								}
								JOINT RightHandPinky1
								{
									OFFSET -13.131393 -0.168503 -5.746925
									CHANNELS 3 Xrotation Yrotation Zrotation
									JOINT RightHandPinky2
									{
										OFFSET -2.849182 0.000000 0.000000
										CHANNELS 3 Xrotation Yrotation Zrotation
										JOINT RightHandPinky3
										{
											OFFSET -2.805038 0.000000 0.000000
											CHANNELS 3 Xrotation Yrotation Zrotation
											End Site
											{
												OFFSET 0.882500 2.642609 0.325652
											}
										}
									}
								}
							}
							JOINT Right_Sleeve
							{
								OFFSET -6.592125 -0.646545 0.805568
								CHANNELS 3 Xrotation Yrotation Zrotation
								End Site
								{
									OFFSET 0.000179 20.275787 -0.000000
								}
							}
						}
					}
				}
				JOINT Bind_Right_JacketString
				{
					OFFSET -3.534800 11.969597 7.200700
					CHANNELS 3 Xrotation Yrotation Zrotation
					JOINT Bind_Right_JacketString1
					{
						OFFSET -0.319900 -6.102600 2.794100
						CHANNELS 3 Xrotation Yrotation Zrotation
						End Site
						{
							OFFSET 0.000000 6.719452 0.000000
						}
					}
				}
				JOINT Bind_Left_JacketString
				{
					OFFSET 2.904800 11.969597 7.200700
					CHANNELS 3 Xrotation Yrotation Zrotation
					JOINT Bind_Left_JacketString1
					{
						OFFSET 0.364800 -5.904503 3.186800
						CHANNELS 3 Xrotation Yrotation Zrotation
						End Site
						{
							OFFSET 0.000000 6.719513 0.000000
						}
					}
				}
				JOINT HairE
				{
					OFFSET 5.915200 17.612701 -11.592200
					CHANNELS 3 Xrotation Yrotation Zrotation
					JOINT HairE1
					{
						OFFSET 0.289200 -7.171898 -1.284500
						CHANNELS 3 Xrotation Yrotation Zrotation
						End Site
						{
							OFFSET 0.000000 7.291756 0.000000
						}
					}
				}
				JOINT HairF
				{
					OFFSET -0.864800 17.612701 -11.592200
					CHANNELS 3 Xrotation Yrotation Zrotation
					JOINT HairF1
					{
						OFFSET 0.000000 -14.087097 -2.127501
						CHANNELS 3 Xrotation Yrotation Zrotation
						End Site
						{
							OFFSET 0.000000 14.246841 0.000000
						}
					}
				}
				JOINT HairG
				{
					OFFSET -8.087700 17.612701 -11.592200
					CHANNELS 3 Xrotation Yrotation Zrotation
					JOINT HairG1
					{
						OFFSET -0.293600 -6.081398 -0.910100
						CHANNELS 3 Xrotation Yrotation Zrotation
						End Site
						{
							OFFSET 0.000000 6.156120 0.000000
						}
					}
				}
			}
		}
	}
	JOINT Pouch
	{
		OFFSET 0.000000 4.394501 10.847300
		CHANNELS 3 Xrotation Yrotation Zrotation
		End Site
		{
			OFFSET 0.000000 21.880577 0.000000
		}
	}
	JOINT Bag
	{
		OFFSET -13.229000 4.813004 -0.593300
		CHANNELS 3 Xrotation Yrotation Zrotation
		End Site
		{
			OFFSET 0.000000 21.880577 0.000000
		}
	}
	JOINT OccupyGuyFacialAnim_Joint
	{
		OFFSET 1.000000 -70.206398 -1.655000
		CHANNELS 3 Xrotation Yrotation Zrotation
		End Site
		{
			OFFSET 0.000000 21.880577 0.000000
		}
	}
}
MOTION
Frames: 5
Frame Time: 0.016667
2.756935 65.382469 83.830780 4.445733 -6.121668 -3.445166 0.000000 0.000000 0.000000 -45.913758 9.727543 9.891594 38.330680 -6.482605 3.267453 -5.251763 -13.884955 -2.399019 -0.000000 0.000000 0.000000 0.000007 -0.000000 -0.000000 -20.534938 3.131310 7.387334 47.316354 3.689115 -2.261651 -30.765873 -1.092577 -1.206611 0.000000 0.000000 0.000000 0.000002 0.000000 -0.000000 16.208891 3.440454 1.815270 20.044454 7.628497 3.273776 19.863227 7.768543 3.728082 -47.889964 28.030577 -28.867187 36.505401 -35.951005 36.350332 -0.000001 -0.000001 0.000000 -0.000001 -0.000001 0.000000 -0.000001 -0.000001 0.000000 -0.000001 -0.000001 -0.000000 -0.000001 -0.000001 -0.000000 -0.000001 -0.000001 -0.000000 -0.000001 -0.000001 -0.000000 -0.000001 -0.000001 0.000000 -0.000001 -0.000001 0.000000 -3.629736 -15.408608 -10.382902 -11.971367 6.480792 -65.205070 -0.000031 -64.653894 -0.000030 10.348436 11.182148 -5.507161 40.231573 -29.869664 63.220641 101.357145 66.798062 231.385772 0.000002 0.000001 -0.000005 0.326277 4.094623 -16.584198 0.575166 2.533355 -25.578758 -0.000000 -0.000001 0.000001 -1.060364 2.730917 -36.207557 1.715298 4.142491 -44.971772 0.000001 0.000000 -0.000005 -3.216821 3.157163 -55.387797 2.284629 4.641489 -52.395843 -0.000000 0.000000 0.000001 -4.251955 3.052463 -58.936985 2.013177 4.419832 -48.960469 0.000001 0.000001 -0.000001 0.000001 0.000001 -0.000001 -0.264767 19.358395 4.692115 -45.642746 8.432341 36.901449 0.000054 101.974513 -0.000068 -5.090085 -12.734921 15.640845 33.081786 30.015201 -8.052856 13.702115 -51.628454 20.266368 0.000003 0.000001 0.000001 0.112178 -3.191138 17.097164 3.779988 -4.573984 79.132058 0.000000 0.000001 0.000002 2.613392 -8.387971 27.063303 5.675766 -4.544638 102.647109 0.000001 -0.000001 -0.000001 1.668035 -5.863625 57.331529 4.190498 -4.633785 84.242495 -0.000003 0.000000 0.000001 1.874822 -6.023831 60.182443 3.825255 -4.582437 79.698875 0.000002 0.000000 0.000002 0.000000 -0.000001 -0.000003 -0.000001 0.000000 -0.000000 -0.000001 0.000000 0.000000 -0.000001 0.000000 -0.000000 -0.000001 0.000000 -0.000000 -0.000001 0.000000 -0.000000 -0.000001 0.000000 -0.000000 -0.000001 0.000000 -0.000000 -0.000001 0.000000 -0.000000 -0.000001 0.000000 -0.000000 -0.000001 0.000000 -0.000000 0.000000 0.000000 0.000000 0.000000 0.000000 0.000000 0.000000 0.000000 0.000000 
2.550644 65.510864 83.222916 3.552306 -6.353258 -3.902944 -0.000000 0.000000 0.000000 -45.649822 9.810517 10.694216 38.782197 -6.290171 3.614241 -7.155682 -11.116260 -2.849357 0.000000 0.000000 0.000000 0.000002 -0.000000 0.000000 -19.896551 2.890901 7.698498 46.608999 3.978310 -1.999269 -30.156819 -0.867364 -1.218685 0.000000 0.000000 -0.000000 -0.000001 0.000000 -0.000000 16.020929 3.456199 1.954477 19.617230 7.612218 3.331498 19.436471 7.747066 3.778476 -47.550650 27.672107 -28.991380 38.119238 -35.320657 37.422740 0.000001 -0.000000 0.000000 0.000001 -0.000000 0.000000 0.000001 -0.000000 0.000001 0.000001 -0.000000 -0.000000 0.000001 -0.000001 0.000001 0.000001 -0.000000 -0.000000 0.000001 -0.000001 0.000001 0.000001 -0.000000 0.000000 0.000001 -0.000000 0.000000 -3.381596 -14.879789 -10.335931 -13.224299 6.607386 -66.021872 0.000015 -61.657757 0.000018 11.729638 10.831218 -6.290845 40.231573 -29.869654 63.220654 101.357166 66.798096 231.385772 -0.000001 -0.000000 -0.000004 0.332592 4.115498 -16.628130 0.574476 2.531934 -25.563264 0.000000 -0.000000 -0.000002 -1.056182 2.737767 -36.217010 1.715074 4.142254 -44.968524 0.000001 -0.000001 -0.000003 -3.220689 3.154141 -55.385697 2.283629 4.640721 -52.383535 -0.000002 -0.000000 0.000000 -4.265350 3.043557 -58.932955 2.013845 4.420412 -48.969137 0.000000 -0.000002 0.000003 0.000000 -0.000003 0.000002 -0.354254 18.524219 5.452753 -46.329641 9.134338 35.856096 0.000133 102.007741 -0.000126 -4.606137 -14.524203 16.388257 33.376522 32.500991 -7.034570 15.577949 -52.554307 22.116873 0.000000 -0.000003 0.000000 0.230064 -3.590288 18.982733 3.761838 -4.570455 78.904053 -0.000004 0.000000 0.000000 2.920895 -8.736729 28.390118 5.675517 -4.544695 102.644035 -0.000002 0.000000 -0.000001 1.674751 -5.879967 58.233114 4.191181 -4.633850 84.251053 0.000001 0.000001 -0.000001 1.781890 -5.983863 61.063483 3.804144 -4.578549 79.434157 -0.000003 0.000002 -0.000001 -0.000001 0.000001 0.000004 0.000001 -0.000001 -0.000000 0.000001 0.000001 0.000001 0.000001 -0.000001 -0.000001 0.000001 -0.000001 -0.000001 0.000001 -0.000001 -0.000000 0.000001 0.000001 0.000001 0.000001 -0.000001 -0.000001 0.000001 -0.000001 -0.000001 0.000001 -0.000001 -0.000000 0.000001 0.000001 0.000001 -0.000000 0.000000 0.000000 -0.000000 0.000000 0.000000 -0.000000 0.000000 0.000000 
2.357830 65.630989 82.631462 2.647919 -6.463376 -4.288153 0.000000 -0.000001 -0.000000 -45.405721 10.122879 11.437539 39.390975 -6.351010 3.972075 -9.237683 -8.170889 -2.985204 0.000000 -0.000000 0.000000 0.000004 -0.000000 -0.000000 -19.374919 2.624593 8.032947 46.184052 4.254000 -1.863011 -29.483915 -0.763228 -1.283095 -0.000000 -0.000000 0.000000 -0.000000 0.000000 -0.000000 15.852522 3.454149 2.098459 19.228933 7.527442 3.365997 19.049737 7.657299 3.800925 -47.323051 27.067673 -28.852594 39.262127 -34.801999 37.979045 -0.000000 -0.000000 0.000001 -0.000000 -0.000000 0.000001 -0.000000 -0.000000 0.000001 -0.000000 -0.000000 0.000000 -0.000002 -0.000000 0.000000 -0.000000 -0.000000 0.000000 -0.000002 -0.000000 0.000000 -0.000000 -0.000000 0.000001 -0.000000 -0.000000 0.000001 -3.121610 -14.392986 -10.230462 -14.562995 6.814949 -66.747286 -0.000017 -58.543826 -0.000027 13.133021 10.507481 -7.034954 40.231570 -29.869660 63.220648 101.357159 66.798096 231.385772 0.000000 -0.000000 0.000001 0.338912 4.136362 -16.672031 0.573791 2.530516 -25.547834 -0.000001 0.000000 -0.000000 -1.051989 2.744607 -36.226507 1.714831 4.142014 -44.965201 -0.000000 0.000000 0.000001 -3.224560 3.151123 -55.383590 2.282640 4.639962 -52.371237 -0.000001 -0.000000 -0.000001 -4.278743 3.034652 -58.928905 2.014519 4.420994 -48.977818 -0.000001 -0.000002 0.000001 0.000001 -0.000001 0.000001 -0.392653 17.683326 6.225811 -47.721869 9.660094 34.897813 0.000212 101.754499 -0.000236 -3.782691 -15.360839 17.241465 33.184286 33.896450 -6.641116 19.104982 -53.466403 25.625813 -0.000000 -0.000002 -0.000001 0.430323 -4.130904 22.535897 3.754254 -4.568962 78.809018 -0.000001 -0.000002 0.000005 3.498112 -9.251696 31.121511 5.680928 -4.543476 102.712405 0.000002 0.000000 0.000001 1.784253 -5.966269 59.751513 4.181631 -4.632879 84.132822 -0.000002 -0.000000 -0.000000 1.716426 -5.975411 62.613970 3.744617 -4.567091 78.687993 -0.000001 0.000001 -0.000001 0.000000 0.000000 -0.000001 0.000001 0.000000 0.000000 -0.000001 -0.000001 0.000000 0.000001 0.000000 -0.000000 0.000001 0.000000 -0.000000 0.000001 0.000000 0.000000 -0.000001 -0.000001 0.000000 0.000001 0.000000 -0.000000 0.000001 0.000000 -0.000000 0.000001 0.000000 0.000000 -0.000001 -0.000001 0.000000 0.000000 -0.000001 -0.000000 0.000000 -0.000001 -0.000000 0.000000 -0.000001 -0.000000 
2.179596 65.742805 82.060844 1.734431 -6.430898 -4.596337 -0.000000 -0.000000 0.000000 -44.879179 9.646420 12.046925 40.026551 -4.680488 3.699609 -11.367388 -6.135985 -2.996980 0.000001 0.000000 0.000000 0.000001 0.000000 0.000001 -18.855036 2.284143 8.366939 45.874996 4.460782 -1.858748 -28.738485 -0.740829 -1.520360 0.000000 0.000000 -0.000000 -0.000000 0.000000 -0.000000 15.688461 3.444287 2.254203 18.892730 7.360077 3.379201 18.719016 7.487798 3.782728 -47.227995 26.281458 -28.461883 39.969912 -34.405138 38.024025 0.000001 -0.000000 0.000000 0.000001 -0.000000 0.000000 0.000001 -0.000000 0.000001 0.000001 -0.000000 0.000000 0.000001 -0.000000 0.000000 0.000001 -0.000000 0.000000 0.000001 -0.000000 0.000000 0.000001 -0.000000 0.000000 0.000001 -0.000000 0.000000 -2.920879 -13.934225 -10.054507 -15.900429 7.130576 -67.405013 -0.000010 -55.377326 -0.000010 14.611998 10.219439 -7.765602 40.231563 -29.869660 63.220648 101.357180 66.798082 231.385772 0.000001 0.000002 -0.000003 0.345258 4.157189 -16.715916 0.573122 2.529095 -25.532473 0.000003 0.000001 0.000002 -1.047804 2.751443 -36.235970 1.714585 4.141772 -44.961913 0.000001 -0.000003 -0.000001 -3.228421 3.148098 -55.381489 2.281643 4.639190 -52.358943 -0.000000 0.000001 -0.000001 -4.292122 3.025746 -58.924855 2.015188 4.421570 -48.986468 -0.000000 -0.000000 -0.000001 0.000000 -0.000001 0.000001 -0.415606 16.816231 7.010206 -50.064846 9.752492 34.132689 0.000133 102.015241 -0.000131 -0.832178 -16.814182 17.983352 32.697949 34.534837 -6.548636 23.673164 -54.235486 30.132944 0.000000 -0.000001 -0.000001 0.718693 -4.714169 27.043092 3.751664 -4.568457 78.776595 0.000000 -0.000000 0.000004 4.252586 -9.772401 34.665983 5.688871 -4.541682 102.812590 0.000003 -0.000002 0.000001 1.961996 -6.088651 61.568985 4.166820 -4.631351 83.949370 -0.000004 0.000001 -0.000003 1.641901 -5.979112 64.563524 3.670859 -4.551760 77.759921 -0.000003 0.000002 -0.000001 0.000001 0.000001 0.000000 -0.000001 0.000001 0.000001 0.000000 -0.000000 -0.000000 -0.000001 0.000001 0.000000 -0.000001 0.000001 0.000000 -0.000001 0.000001 0.000001 0.000000 -0.000000 -0.000000 -0.000001 0.000001 0.000000 -0.000001 0.000001 0.000000 -0.000001 0.000001 0.000001 0.000000 -0.000000 -0.000000 -0.000000 -0.000000 0.000000 -0.000000 -0.000000 0.000000 -0.000000 -0.000000 0.000000 
2.020050 65.844345 81.514328 0.818348 -6.249546 -4.828764 -0.000000 0.000000 0.000001 -44.006953 8.803926 12.393175 40.707979 -1.214336 2.888325 -13.098627 -5.694874 -2.859854 -0.000001 0.000000 0.000000 -0.000000 0.000000 0.000000 -18.359890 2.026272 8.680389 45.690981 4.676578 -1.918299 -28.094171 -0.896517 -1.636630 0.000000 -0.000000 0.000000 -0.000002 -0.000000 -0.000000 15.540188 3.404216 2.414029 18.588273 7.129564 3.367389 18.418549 7.257469 3.742485 -47.311771 25.217137 -27.825702 40.216171 -34.030690 37.590960 0.000001 0.000001 -0.000000 0.000001 0.000001 -0.000000 0.000001 0.000001 0.000000 0.000001 0.000001 -0.000000 -0.000000 -0.000001 -0.000000 0.000001 0.000001 -0.000000 -0.000000 -0.000001 -0.000000 0.000001 0.000001 -0.000000 0.000001 0.000001 -0.000000 -2.696759 -13.540301 -9.827422 -17.269375 7.585407 -67.978387 0.000019 -52.241631 0.000027 16.215614 9.976518 -8.505832 40.231576 -29.869664 63.220661 101.357125 66.798089 231.385799 -0.000004 0.000004 -0.000002 0.351639 4.177993 -16.759775 0.572435 2.527673 -25.517104 0.000002 -0.000000 -0.000002 -1.043620 2.758277 -36.245427 1.714347 4.141533 -44.958600 0.000002 -0.000001 -0.000003 -3.232285 3.145078 -55.379386 2.280651 4.638431 -52.346662 -0.000001 -0.000001 -0.000002 -4.305492 3.016844 -58.920811 2.015853 4.422142 -48.995112 0.000001 0.000000 0.000001 0.000000 0.000001 -0.000001 -0.400122 15.885990 7.777826 -52.330058 10.140612 33.435579 0.000007 101.413221 -0.000010 1.318818 -16.695723 18.843461 32.014435 34.183010 -6.004131 28.477284 -54.880597 34.611973 0.000002 -0.000001 0.000003 1.059945 -5.234433 31.965688 3.749960 -4.568115 78.754943 0.000001 0.000002 0.000000 5.025020 -10.138143 38.417967 5.695592 -4.540159 102.897613 0.000002 -0.000000 0.000003 2.189259 -6.223708 63.172584 4.150516 -4.629589 83.747647 -0.000001 0.000000 -0.000004 1.566144 -5.997663 66.687310 3.618002 -4.540007 77.093117 0.000001 0.000002 0.000001 0.000002 -0.000001 0.000000 0.000002 -0.000001 -0.000000 0.000002 0.000001 0.000000 0.000002 -0.000001 -0.000000 0.000002 -0.000001 -0.000000 0.000002 -0.000001 -0.000000 0.000002 0.000001 0.000000 0.000002 -0.000001 -0.000000 0.000002 -0.000001 -0.000000 0.000002 -0.000001 -0.000000 0.000002 0.000001 0.000000 -0.000000 0.000000 0.000001 -0.000000 0.000000 0.000001 -0.000000 0.000000 0.000001 
